<?xml version="1.0" encoding="utf-8"?>
<!-- Generator: Adobe Illustrator 19.0.0, SVG Export Plug-In . SVG Version: 6.00 Build 0)  -->
<svg version="1.1" id="Ebene_1" xmlns="http://www.w3.org/2000/svg" xmlns:xlink="http://www.w3.org/1999/xlink" x="0px" y="0px"
	 viewBox="0 0 678 666.6" style="enable-background:new 0 0 678 666.6;" xml:space="preserve">
<style type="text/css">
	.st0{fill-rule:evenodd;clip-rule:evenodd;fill:#FFFFFF;}
</style>
<path class="st0" d="M338.6,6.3c-180.3,0-327,146.7-327,327c0,180.3,146.7,326.9,327,326.9c181.4,0,328.1-146.7,328.1-326.9
	C666.6,153,520,6.3,338.6,6.3z M323.4,226.8c0,0,0,104.9,0,108.8c0,0.5,0,1.1,0,1.6c-0.3,8.8-2.9,17-7.2,24c-1.7,3.3-3.4,6-4.4,7.6
	c-1.8,2.9-60.3,86.1-60.3,86.1l-23.7,33.6c-13.6,19.4-32.3,21.3-50.1,8.8c-17.8-12.4-22.4-30.7-8.8-50.1c0,0,43.3-62,62.4-89.3
	c4.6-6.6,7.8-11.2,8.6-12.3c0.3-0.4,0.6-0.9,0.9-1.3c6.5-8.5,10.5-18.9,10.8-30.3c0-1.2,0-1.9,0-1.9v-19.7V189.4
	c0-23.6,14.3-36,36-36c21.7,0,36,12.3,36,36V226.8z M500.6,497.3c-17.8,12.4-36.5,10.5-50.1-8.8l-23.7-33.6c0,0-58.5-83.2-60.3-86.1
	c-1-1.7-2.7-4.3-4.4-7.6c-4.3-7-6.9-15.2-7.2-24c0-0.5,0-1.1,0-1.6c0-3.8,0-108.8,0-108.8v-37.4c0-23.6,14.3-36,36-36
	c21.7,0,36,12.3,36,36v103.1v19.7c0,0,0,0.7,0,1.9c0.3,11.3,4.2,21.8,10.8,30.3c0.3,0.4,0.6,0.8,0.9,1.3c0.8,1.2,4,5.7,8.6,12.3
	c19,27.3,62.4,89.3,62.4,89.3C523,466.6,518.3,484.9,500.6,497.3z"/>
</svg>
